<svg width="1440" height="27" viewBox="0 0 1440 27" fill="none" xmlns="http://www.w3.org/2000/svg">
<path d="M-906.692 25.7988L-912.344 17.6988C-909.068 16.2948 -907.16 13.5228 -907.16 9.74283C-907.16 4.09083 -911.372 0.598826 -918.104 0.598826H-929.012V25.7988H-923.18V18.7788H-918.104H-917.816L-912.956 25.7988H-906.692ZM-913.064 9.74283C-913.064 12.4788 -914.864 14.1348 -918.428 14.1348H-923.18V5.35083H-918.428C-914.864 5.35083 -913.064 6.97083 -913.064 9.74283ZM-901.819 25.7988H-890.371C-882.127 25.7988 -876.475 20.8308 -876.475 13.1988C-876.475 5.56683 -882.127 0.598826 -890.371 0.598826H-901.819V25.7988ZM-895.987 21.0108V5.38683H-890.659C-885.655 5.38683 -882.379 8.37483 -882.379 13.1988C-882.379 18.0228 -885.655 21.0108 -890.659 21.0108H-895.987ZM-859.297 26.2308C-854.905 26.2308 -851.269 24.6468 -848.893 21.7308L-852.637 18.2748C-854.329 20.2548 -856.453 21.2628 -858.973 21.2628C-863.689 21.2628 -867.037 17.9508 -867.037 13.1988C-867.037 8.44683 -863.689 5.13483 -858.973 5.13483C-856.453 5.13483 -854.329 6.14283 -852.637 8.08683L-848.893 4.63083C-851.269 1.75083 -854.905 0.166828 -859.261 0.166828C-867.109 0.166828 -872.941 5.60283 -872.941 13.1988C-872.941 20.7948 -867.109 26.2308 -859.297 26.2308ZM-844.235 25.7988H-825.767V21.0468H-838.403V0.598826H-844.235V25.7988ZM-799.468 25.7988L-805.12 17.6988C-801.844 16.2948 -799.936 13.5228 -799.936 9.74283C-799.936 4.09083 -804.148 0.598826 -810.88 0.598826H-821.788V25.7988H-815.956V18.7788H-810.88H-810.592L-805.732 25.7988H-799.468ZM-805.84 9.74283C-805.84 12.4788 -807.64 14.1348 -811.204 14.1348H-815.956V5.35083H-811.204C-807.64 5.35083 -805.84 6.97083 -805.84 9.74283ZM-792.868 26.0868C-790.924 26.0868 -789.376 24.6108 -789.376 22.5588C-789.376 20.4708 -790.924 19.1028 -792.868 19.1028C-794.812 19.1028 -796.36 20.4708 -796.36 22.5588C-796.36 24.6108 -794.812 26.0868 -792.868 26.0868ZM1580.35 25.7988L1574.7 17.6988C1577.97 16.2948 1579.88 13.5228 1579.88 9.74283C1579.88 4.09083 1575.67 0.598826 1568.94 0.598826H1558.03V25.7988H1563.86V18.7788H1568.94H1569.23L1574.09 25.7988H1580.35ZM1573.98 9.74283C1573.98 12.4788 1572.18 14.1348 1568.61 14.1348H1563.86V5.35083H1568.61C1572.18 5.35083 1573.98 6.97083 1573.98 9.74283ZM1585.22 25.7988H1596.67C1604.91 25.7988 1610.57 20.8308 1610.57 13.1988C1610.57 5.56683 1604.91 0.598826 1596.67 0.598826H1585.22V25.7988ZM1591.05 21.0108V5.38683H1596.38C1601.39 5.38683 1604.66 8.37483 1604.66 13.1988C1604.66 18.0228 1601.39 21.0108 1596.38 21.0108H1591.05ZM1627.74 26.2308C1632.14 26.2308 1635.77 24.6468 1638.15 21.7308L1634.4 18.2748C1632.71 20.2548 1630.59 21.2628 1628.07 21.2628C1623.35 21.2628 1620 17.9508 1620 13.1988C1620 8.44683 1623.35 5.13483 1628.07 5.13483C1630.59 5.13483 1632.71 6.14283 1634.4 8.08683L1638.15 4.63083C1635.77 1.75083 1632.14 0.166828 1627.78 0.166828C1619.93 0.166828 1614.1 5.60283 1614.1 13.1988C1614.1 20.7948 1619.93 26.2308 1627.74 26.2308ZM1642.81 25.7988H1661.27V21.0468H1648.64V0.598826H1642.81V25.7988Z" fill="#EC3332"/>
<path d="M-767.174 0.598826V10.5348H-778.622V0.598826H-784.454V25.7988H-778.622V15.4668H-767.174V25.7988H-761.342V0.598826H-767.174ZM-742.456 26.2308C-734.536 26.2308 -728.668 20.7228 -728.668 13.1988C-728.668 5.67483 -734.536 0.166828 -742.456 0.166828C-750.412 0.166828 -756.244 5.71083 -756.244 13.1988C-756.244 20.6868 -750.412 26.2308 -742.456 26.2308ZM-742.456 21.2628C-746.956 21.2628 -750.34 17.9868 -750.34 13.1988C-750.34 8.41083 -746.956 5.13483 -742.456 5.13483C-737.956 5.13483 -734.572 8.41083 -734.572 13.1988C-734.572 17.9868 -737.956 21.2628 -742.456 21.2628ZM-695.161 25.7988L-695.233 0.598826H-700.021L-709.309 16.2588L-718.741 0.598826H-723.565V25.7988H-718.093V11.0028L-710.713 23.1348H-708.085L-700.669 10.6788L-700.633 25.7988H-695.161ZM-682.666 21.1188V15.2868H-670.966V10.7508H-682.666V5.27883H-669.418V0.598826H-688.462V25.7988H-668.95V21.1188H-682.666ZM-490.836 0.598826V10.5348H-502.284V0.598826H-508.116V25.7988H-502.284V15.4668H-490.836V25.7988H-485.004V0.598826H-490.836ZM-466.118 26.2308C-458.198 26.2308 -452.33 20.7228 -452.33 13.1988C-452.33 5.67483 -458.198 0.166828 -466.118 0.166828C-474.074 0.166828 -479.906 5.71083 -479.906 13.1988C-479.906 20.6868 -474.074 26.2308 -466.118 26.2308ZM-466.118 21.2628C-470.618 21.2628 -474.002 17.9868 -474.002 13.1988C-474.002 8.41083 -470.618 5.13483 -466.118 5.13483C-461.618 5.13483 -458.234 8.41083 -458.234 13.1988C-458.234 17.9868 -461.618 21.2628 -466.118 21.2628ZM-418.823 25.7988L-418.895 0.598826H-423.683L-432.971 16.2588L-442.403 0.598826H-447.227V25.7988H-441.755V11.0028L-434.375 23.1348H-431.747L-424.331 10.6788L-424.295 25.7988H-418.823ZM-406.328 21.1188V15.2868H-394.628V10.7508H-406.328V5.27883H-393.08V0.598826H-412.124V25.7988H-392.612V21.1188H-406.328ZM-214.498 0.598826V10.5348H-225.946V0.598826H-231.778V25.7988H-225.946V15.4668H-214.498V25.7988H-208.666V0.598826H-214.498ZM-189.78 26.2308C-181.86 26.2308 -175.992 20.7228 -175.992 13.1988C-175.992 5.67483 -181.86 0.166828 -189.78 0.166828C-197.736 0.166828 -203.568 5.71083 -203.568 13.1988C-203.568 20.6868 -197.736 26.2308 -189.78 26.2308ZM-189.78 21.2628C-194.28 21.2628 -197.664 17.9868 -197.664 13.1988C-197.664 8.41083 -194.28 5.13483 -189.78 5.13483C-185.28 5.13483 -181.896 8.41083 -181.896 13.1988C-181.896 17.9868 -185.28 21.2628 -189.78 21.2628ZM-142.485 25.7988L-142.557 0.598826H-147.345L-156.633 16.2588L-166.065 0.598826H-170.889V25.7988H-165.417V11.0028L-158.037 23.1348H-155.409L-147.993 10.6788L-147.957 25.7988H-142.485ZM-129.99 21.1188V15.2868H-118.29V10.7508H-129.99V5.27883H-116.742V0.598826H-135.786V25.7988H-116.274V21.1188H-129.99ZM61.8402 0.598826V10.5348H50.3922V0.598826H44.5602V25.7988H50.3922V15.4668H61.8402V25.7988H67.6722V0.598826H61.8402ZM86.5584 26.2308C94.4784 26.2308 100.346 20.7228 100.346 13.1988C100.346 5.67483 94.4784 0.166828 86.5584 0.166828C78.6024 0.166828 72.7704 5.71083 72.7704 13.1988C72.7704 20.6868 78.6024 26.2308 86.5584 26.2308ZM86.5584 21.2628C82.0584 21.2628 78.6744 17.9868 78.6744 13.1988C78.6744 8.41083 82.0584 5.13483 86.5584 5.13483C91.0584 5.13483 94.4424 8.41083 94.4424 13.1988C94.4424 17.9868 91.0584 21.2628 86.5584 21.2628ZM133.853 25.7988L133.781 0.598826H128.993L119.705 16.2588L110.273 0.598826H105.449V25.7988H110.921V11.0028L118.301 23.1348H120.929L128.345 10.6788L128.381 25.7988H133.853ZM146.348 21.1188V15.2868H158.048V10.7508H146.348V5.27883H159.596V0.598826H140.552V25.7988H160.064V21.1188H146.348ZM338.178 0.598826V10.5348H326.73V0.598826H320.898V25.7988H326.73V15.4668H338.178V25.7988H344.01V0.598826H338.178ZM362.896 26.2308C370.816 26.2308 376.684 20.7228 376.684 13.1988C376.684 5.67483 370.816 0.166828 362.896 0.166828C354.94 0.166828 349.108 5.71083 349.108 13.1988C349.108 20.6868 354.94 26.2308 362.896 26.2308ZM362.896 21.2628C358.396 21.2628 355.012 17.9868 355.012 13.1988C355.012 8.41083 358.396 5.13483 362.896 5.13483C367.396 5.13483 370.78 8.41083 370.78 13.1988C370.78 17.9868 367.396 21.2628 362.896 21.2628ZM410.191 25.7988L410.119 0.598826H405.331L396.043 16.2588L386.611 0.598826H381.787V25.7988H387.259V11.0028L394.639 23.1348H397.267L404.683 10.6788L404.719 25.7988H410.191ZM422.686 21.1188V15.2868H434.386V10.7508H422.686V5.27883H435.934V0.598826H416.89V25.7988H436.402V21.1188H422.686ZM614.516 0.598826V10.5348H603.068V0.598826H597.236V25.7988H603.068V15.4668H614.516V25.7988H620.348V0.598826H614.516ZM639.234 26.2308C647.154 26.2308 653.022 20.7228 653.022 13.1988C653.022 5.67483 647.154 0.166828 639.234 0.166828C631.278 0.166828 625.446 5.71083 625.446 13.1988C625.446 20.6868 631.278 26.2308 639.234 26.2308ZM639.234 21.2628C634.734 21.2628 631.35 17.9868 631.35 13.1988C631.35 8.41083 634.734 5.13483 639.234 5.13483C643.734 5.13483 647.118 8.41083 647.118 13.1988C647.118 17.9868 643.734 21.2628 639.234 21.2628ZM686.529 25.7988L686.457 0.598826H681.669L672.381 16.2588L662.949 0.598826H658.125V25.7988H663.597V11.0028L670.977 23.1348H673.605L681.021 10.6788L681.057 25.7988H686.529ZM699.024 21.1188V15.2868H710.724V10.7508H699.024V5.27883H712.272V0.598826H693.228V25.7988H712.74V21.1188H699.024ZM890.854 0.598826V10.5348H879.406V0.598826H873.574V25.7988H879.406V15.4668H890.854V25.7988H896.686V0.598826H890.854ZM915.572 26.2308C923.492 26.2308 929.36 20.7228 929.36 13.1988C929.36 5.67483 923.492 0.166828 915.572 0.166828C907.616 0.166828 901.784 5.71083 901.784 13.1988C901.784 20.6868 907.616 26.2308 915.572 26.2308ZM915.572 21.2628C911.072 21.2628 907.688 17.9868 907.688 13.1988C907.688 8.41083 911.072 5.13483 915.572 5.13483C920.072 5.13483 923.456 8.41083 923.456 13.1988C923.456 17.9868 920.072 21.2628 915.572 21.2628ZM962.867 25.7988L962.795 0.598826H958.007L948.719 16.2588L939.287 0.598826H934.463V25.7988H939.935V11.0028L947.315 23.1348H949.943L957.359 10.6788L957.395 25.7988H962.867ZM975.362 21.1188V15.2868H987.062V10.7508H975.362V5.27883H988.61V0.598826H969.566V25.7988H989.078V21.1188H975.362ZM1167.19 0.598826V10.5348H1155.74V0.598826H1149.91V25.7988H1155.74V15.4668H1167.19V25.7988H1173.02V0.598826H1167.19ZM1191.91 26.2308C1199.83 26.2308 1205.7 20.7228 1205.7 13.1988C1205.7 5.67483 1199.83 0.166828 1191.91 0.166828C1183.95 0.166828 1178.12 5.71083 1178.12 13.1988C1178.12 20.6868 1183.95 26.2308 1191.91 26.2308ZM1191.91 21.2628C1187.41 21.2628 1184.03 17.9868 1184.03 13.1988C1184.03 8.41083 1187.41 5.13483 1191.91 5.13483C1196.41 5.13483 1199.79 8.41083 1199.79 13.1988C1199.79 17.9868 1196.41 21.2628 1191.91 21.2628ZM1239.21 25.7988L1239.13 0.598826H1234.35L1225.06 16.2588L1215.63 0.598826H1210.8V25.7988H1216.27V11.0028L1223.65 23.1348H1226.28L1233.7 10.6788L1233.73 25.7988H1239.21ZM1251.7 21.1188V15.2868H1263.4V10.7508H1251.7V5.27883H1264.95V0.598826H1245.9V25.7988H1265.42V21.1188H1251.7ZM1443.53 0.598826V10.5348H1432.08V0.598826H1426.25V25.7988H1432.08V15.4668H1443.53V25.7988H1449.36V0.598826H1443.53ZM1468.25 26.2308C1476.17 26.2308 1482.04 20.7228 1482.04 13.1988C1482.04 5.67483 1476.17 0.166828 1468.25 0.166828C1460.29 0.166828 1454.46 5.71083 1454.46 13.1988C1454.46 20.6868 1460.29 26.2308 1468.25 26.2308ZM1468.25 21.2628C1463.75 21.2628 1460.36 17.9868 1460.36 13.1988C1460.36 8.41083 1463.75 5.13483 1468.25 5.13483C1472.75 5.13483 1476.13 8.41083 1476.13 13.1988C1476.13 17.9868 1472.75 21.2628 1468.25 21.2628ZM1515.54 25.7988L1515.47 0.598826H1510.68L1501.4 16.2588L1491.96 0.598826H1487.14V25.7988H1492.61V11.0028L1499.99 23.1348H1502.62L1510.04 10.6788L1510.07 25.7988H1515.54ZM1528.04 21.1188V15.2868H1539.74V10.7508H1528.04V5.27883H1541.29V0.598826H1522.24V25.7988H1541.75V21.1188H1528.04Z" fill="white"/>
<path d="M-630.354 25.7988L-636.006 17.6988C-632.73 16.2948 -630.822 13.5228 -630.822 9.74283C-630.822 4.09083 -635.034 0.598826 -641.766 0.598826H-652.674V25.7988H-646.842V18.7788H-641.766H-641.478L-636.618 25.7988H-630.354ZM-636.726 9.74283C-636.726 12.4788 -638.526 14.1348 -642.09 14.1348H-646.842V5.35083H-642.09C-638.526 5.35083 -636.726 6.97083 -636.726 9.74283ZM-625.481 25.7988H-614.033C-605.789 25.7988 -600.137 20.8308 -600.137 13.1988C-600.137 5.56683 -605.789 0.598826 -614.033 0.598826H-625.481V25.7988ZM-619.649 21.0108V5.38683H-614.321C-609.317 5.38683 -606.041 8.37483 -606.041 13.1988C-606.041 18.0228 -609.317 21.0108 -614.321 21.0108H-619.649ZM-582.959 26.2308C-578.567 26.2308 -574.931 24.6468 -572.555 21.7308L-576.299 18.2748C-577.991 20.2548 -580.115 21.2628 -582.635 21.2628C-587.351 21.2628 -590.699 17.9508 -590.699 13.1988C-590.699 8.44683 -587.351 5.13483 -582.635 5.13483C-580.115 5.13483 -577.991 6.14283 -576.299 8.08683L-572.555 4.63083C-574.931 1.75083 -578.567 0.166828 -582.923 0.166828C-590.771 0.166828 -596.603 5.60283 -596.603 13.1988C-596.603 20.7948 -590.771 26.2308 -582.959 26.2308ZM-567.897 25.7988H-549.429V21.0468H-562.065V0.598826H-567.897V25.7988ZM-523.13 25.7988L-528.782 17.6988C-525.506 16.2948 -523.598 13.5228 -523.598 9.74283C-523.598 4.09083 -527.81 0.598826 -534.542 0.598826H-545.45V25.7988H-539.618V18.7788H-534.542H-534.254L-529.394 25.7988H-523.13ZM-529.502 9.74283C-529.502 12.4788 -531.302 14.1348 -534.866 14.1348H-539.618V5.35083H-534.866C-531.302 5.35083 -529.502 6.97083 -529.502 9.74283ZM-516.53 26.0868C-514.586 26.0868 -513.038 24.6108 -513.038 22.5588C-513.038 20.4708 -514.586 19.1028 -516.53 19.1028C-518.474 19.1028 -520.022 20.4708 -520.022 22.5588C-520.022 24.6108 -518.474 26.0868 -516.53 26.0868ZM-354.016 25.7988L-359.668 17.6988C-356.392 16.2948 -354.484 13.5228 -354.484 9.74283C-354.484 4.09083 -358.696 0.598826 -365.428 0.598826H-376.336V25.7988H-370.504V18.7788H-365.428H-365.14L-360.28 25.7988H-354.016ZM-360.388 9.74283C-360.388 12.4788 -362.188 14.1348 -365.752 14.1348H-370.504V5.35083H-365.752C-362.188 5.35083 -360.388 6.97083 -360.388 9.74283ZM-349.143 25.7988H-337.695C-329.451 25.7988 -323.799 20.8308 -323.799 13.1988C-323.799 5.56683 -329.451 0.598826 -337.695 0.598826H-349.143V25.7988ZM-343.311 21.0108V5.38683H-337.983C-332.979 5.38683 -329.703 8.37483 -329.703 13.1988C-329.703 18.0228 -332.979 21.0108 -337.983 21.0108H-343.311ZM-306.621 26.2308C-302.229 26.2308 -298.593 24.6468 -296.217 21.7308L-299.961 18.2748C-301.653 20.2548 -303.777 21.2628 -306.297 21.2628C-311.013 21.2628 -314.361 17.9508 -314.361 13.1988C-314.361 8.44683 -311.013 5.13483 -306.297 5.13483C-303.777 5.13483 -301.653 6.14283 -299.961 8.08683L-296.217 4.63083C-298.593 1.75083 -302.229 0.166828 -306.585 0.166828C-314.433 0.166828 -320.265 5.60283 -320.265 13.1988C-320.265 20.7948 -314.433 26.2308 -306.621 26.2308ZM-291.559 25.7988H-273.091V21.0468H-285.727V0.598826H-291.559V25.7988ZM-246.792 25.7988L-252.444 17.6988C-249.168 16.2948 -247.26 13.5228 -247.26 9.74283C-247.26 4.09083 -251.472 0.598826 -258.204 0.598826H-269.112V25.7988H-263.28V18.7788H-258.204H-257.916L-253.056 25.7988H-246.792ZM-253.164 9.74283C-253.164 12.4788 -254.964 14.1348 -258.528 14.1348H-263.28V5.35083H-258.528C-254.964 5.35083 -253.164 6.97083 -253.164 9.74283ZM-240.192 26.0868C-238.248 26.0868 -236.7 24.6108 -236.7 22.5588C-236.7 20.4708 -238.248 19.1028 -240.192 19.1028C-242.136 19.1028 -243.684 20.4708 -243.684 22.5588C-243.684 24.6108 -242.136 26.0868 -240.192 26.0868ZM-77.6781 25.7988L-83.3301 17.6988C-80.0541 16.2948 -78.1461 13.5228 -78.1461 9.74283C-78.1461 4.09083 -82.3581 0.598826 -89.0901 0.598826H-99.9981V25.7988H-94.1661V18.7788H-89.0901H-88.8021L-83.9421 25.7988H-77.6781ZM-84.0501 9.74283C-84.0501 12.4788 -85.8501 14.1348 -89.4141 14.1348H-94.1661V5.35083H-89.4141C-85.8501 5.35083 -84.0501 6.97083 -84.0501 9.74283ZM-72.8055 25.7988H-61.3575C-53.1135 25.7988 -47.4615 20.8308 -47.4615 13.1988C-47.4615 5.56683 -53.1135 0.598826 -61.3575 0.598826H-72.8055V25.7988ZM-66.9735 21.0108V5.38683H-61.6455C-56.6415 5.38683 -53.3655 8.37483 -53.3655 13.1988C-53.3655 18.0228 -56.6415 21.0108 -61.6455 21.0108H-66.9735ZM-30.2832 26.2308C-25.8912 26.2308 -22.2552 24.6468 -19.8792 21.7308L-23.6232 18.2748C-25.3152 20.2548 -27.4392 21.2628 -29.9592 21.2628C-34.6752 21.2628 -38.0232 17.9508 -38.0232 13.1988C-38.0232 8.44683 -34.6752 5.13483 -29.9592 5.13483C-27.4392 5.13483 -25.3152 6.14283 -23.6232 8.08683L-19.8792 4.63083C-22.2552 1.75083 -25.8912 0.166828 -30.2472 0.166828C-38.0952 0.166828 -43.9272 5.60283 -43.9272 13.1988C-43.9272 20.7948 -38.0952 26.2308 -30.2832 26.2308ZM-15.2209 25.7988H3.24708V21.0468H-9.38892V0.598826H-15.2209V25.7988ZM29.5457 25.7988L23.8937 17.6988C27.1697 16.2948 29.0777 13.5228 29.0777 9.74283C29.0777 4.09083 24.8657 0.598826 18.1337 0.598826H7.22567V25.7988H13.0577V18.7788H18.1337H18.4217L23.2817 25.7988H29.5457ZM23.1737 9.74283C23.1737 12.4788 21.3737 14.1348 17.8097 14.1348H13.0577V5.35083H17.8097C21.3737 5.35083 23.1737 6.97083 23.1737 9.74283ZM36.1463 26.0868C38.0903 26.0868 39.6383 24.6108 39.6383 22.5588C39.6383 20.4708 38.0903 19.1028 36.1463 19.1028C34.2023 19.1028 32.6543 20.4708 32.6543 22.5588C32.6543 24.6108 34.2023 26.0868 36.1463 26.0868ZM198.66 25.7988L193.008 17.6988C196.284 16.2948 198.192 13.5228 198.192 9.74283C198.192 4.09083 193.98 0.598826 187.248 0.598826H176.34V25.7988H182.172V18.7788H187.248H187.536L192.396 25.7988H198.66ZM192.288 9.74283C192.288 12.4788 190.488 14.1348 186.924 14.1348H182.172V5.35083H186.924C190.488 5.35083 192.288 6.97083 192.288 9.74283ZM203.533 25.7988H214.981C223.225 25.7988 228.877 20.8308 228.877 13.1988C228.877 5.56683 223.225 0.598826 214.981 0.598826H203.533V25.7988ZM209.365 21.0108V5.38683H214.693C219.697 5.38683 222.973 8.37483 222.973 13.1988C222.973 18.0228 219.697 21.0108 214.693 21.0108H209.365ZM246.055 26.2308C250.447 26.2308 254.083 24.6468 256.459 21.7308L252.715 18.2748C251.023 20.2548 248.899 21.2628 246.379 21.2628C241.663 21.2628 238.315 17.9508 238.315 13.1988C238.315 8.44683 241.663 5.13483 246.379 5.13483C248.899 5.13483 251.023 6.14283 252.715 8.08683L256.459 4.63083C254.083 1.75083 250.447 0.166828 246.091 0.166828C238.243 0.166828 232.411 5.60283 232.411 13.1988C232.411 20.7948 238.243 26.2308 246.055 26.2308ZM261.117 25.7988H279.585V21.0468H266.949V0.598826H261.117V25.7988ZM305.884 25.7988L300.232 17.6988C303.508 16.2948 305.416 13.5228 305.416 9.74283C305.416 4.09083 301.204 0.598826 294.472 0.598826H283.564V25.7988H289.396V18.7788H294.472H294.76L299.62 25.7988H305.884ZM299.512 9.74283C299.512 12.4788 297.712 14.1348 294.148 14.1348H289.396V5.35083H294.148C297.712 5.35083 299.512 6.97083 299.512 9.74283ZM312.484 26.0868C314.428 26.0868 315.976 24.6108 315.976 22.5588C315.976 20.4708 314.428 19.1028 312.484 19.1028C310.54 19.1028 308.992 20.4708 308.992 22.5588C308.992 24.6108 310.54 26.0868 312.484 26.0868ZM474.998 25.7988L469.346 17.6988C472.622 16.2948 474.53 13.5228 474.53 9.74283C474.53 4.09083 470.318 0.598826 463.586 0.598826H452.678V25.7988H458.51V18.7788H463.586H463.874L468.734 25.7988H474.998ZM468.626 9.74283C468.626 12.4788 466.826 14.1348 463.262 14.1348H458.51V5.35083H463.262C466.826 5.35083 468.626 6.97083 468.626 9.74283ZM479.87 25.7988H491.318C499.562 25.7988 505.214 20.8308 505.214 13.1988C505.214 5.56683 499.562 0.598826 491.318 0.598826H479.87V25.7988ZM485.702 21.0108V5.38683H491.03C496.034 5.38683 499.31 8.37483 499.31 13.1988C499.31 18.0228 496.034 21.0108 491.03 21.0108H485.702ZM522.393 26.2308C526.785 26.2308 530.421 24.6468 532.797 21.7308L529.053 18.2748C527.361 20.2548 525.237 21.2628 522.717 21.2628C518.001 21.2628 514.653 17.9508 514.653 13.1988C514.653 8.44683 518.001 5.13483 522.717 5.13483C525.237 5.13483 527.361 6.14283 529.053 8.08683L532.797 4.63083C530.421 1.75083 526.785 0.166828 522.429 0.166828C514.581 0.166828 508.749 5.60283 508.749 13.1988C508.749 20.7948 514.581 26.2308 522.393 26.2308ZM537.455 25.7988H555.923V21.0468H543.287V0.598826H537.455V25.7988ZM582.222 25.7988L576.57 17.6988C579.846 16.2948 581.754 13.5228 581.754 9.74283C581.754 4.09083 577.542 0.598826 570.81 0.598826H559.902V25.7988H565.734V18.7788H570.81H571.098L575.958 25.7988H582.222ZM575.85 9.74283C575.85 12.4788 574.05 14.1348 570.486 14.1348H565.734V5.35083H570.486C574.05 5.35083 575.85 6.97083 575.85 9.74283ZM588.822 26.0868C590.766 26.0868 592.314 24.6108 592.314 22.5588C592.314 20.4708 590.766 19.1028 588.822 19.1028C586.878 19.1028 585.33 20.4708 585.33 22.5588C585.33 24.6108 586.878 26.0868 588.822 26.0868ZM751.336 25.7988L745.684 17.6988C748.96 16.2948 750.868 13.5228 750.868 9.74283C750.868 4.09083 746.656 0.598826 739.924 0.598826H729.016V25.7988H734.848V18.7788H739.924H740.212L745.072 25.7988H751.336ZM744.964 9.74283C744.964 12.4788 743.164 14.1348 739.6 14.1348H734.848V5.35083H739.6C743.164 5.35083 744.964 6.97083 744.964 9.74283ZM756.208 25.7988H767.656C775.9 25.7988 781.552 20.8308 781.552 13.1988C781.552 5.56683 775.9 0.598826 767.656 0.598826H756.208V25.7988ZM762.04 21.0108V5.38683H767.368C772.372 5.38683 775.648 8.37483 775.648 13.1988C775.648 18.0228 772.372 21.0108 767.368 21.0108H762.04ZM798.731 26.2308C803.123 26.2308 806.759 24.6468 809.135 21.7308L805.391 18.2748C803.699 20.2548 801.575 21.2628 799.055 21.2628C794.339 21.2628 790.991 17.9508 790.991 13.1988C790.991 8.44683 794.339 5.13483 799.055 5.13483C801.575 5.13483 803.699 6.14283 805.391 8.08683L809.135 4.63083C806.759 1.75083 803.123 0.166828 798.767 0.166828C790.919 0.166828 785.087 5.60283 785.087 13.1988C785.087 20.7948 790.919 26.2308 798.731 26.2308ZM813.793 25.7988H832.261V21.0468H819.625V0.598826H813.793V25.7988ZM858.56 25.7988L852.908 17.6988C856.184 16.2948 858.092 13.5228 858.092 9.74283C858.092 4.09083 853.88 0.598826 847.148 0.598826H836.24V25.7988H842.072V18.7788H847.148H847.436L852.296 25.7988H858.56ZM852.188 9.74283C852.188 12.4788 850.388 14.1348 846.824 14.1348H842.072V5.35083H846.824C850.388 5.35083 852.188 6.97083 852.188 9.74283ZM865.16 26.0868C867.104 26.0868 868.652 24.6108 868.652 22.5588C868.652 20.4708 867.104 19.1028 865.16 19.1028C863.216 19.1028 861.668 20.4708 861.668 22.5588C861.668 24.6108 863.216 26.0868 865.16 26.0868ZM1027.67 25.7988L1022.02 17.6988C1025.3 16.2948 1027.21 13.5228 1027.21 9.74283C1027.21 4.09083 1022.99 0.598826 1016.26 0.598826H1005.35V25.7988H1011.19V18.7788H1016.26H1016.55L1021.41 25.7988H1027.67ZM1021.3 9.74283C1021.3 12.4788 1019.5 14.1348 1015.94 14.1348H1011.19V5.35083H1015.94C1019.5 5.35083 1021.3 6.97083 1021.3 9.74283ZM1032.55 25.7988H1043.99C1052.24 25.7988 1057.89 20.8308 1057.89 13.1988C1057.89 5.56683 1052.24 0.598826 1043.99 0.598826H1032.55V25.7988ZM1038.38 21.0108V5.38683H1043.71C1048.71 5.38683 1051.99 8.37483 1051.99 13.1988C1051.99 18.0228 1048.71 21.0108 1043.71 21.0108H1038.38ZM1075.07 26.2308C1079.46 26.2308 1083.1 24.6468 1085.47 21.7308L1081.73 18.2748C1080.04 20.2548 1077.91 21.2628 1075.39 21.2628C1070.68 21.2628 1067.33 17.9508 1067.33 13.1988C1067.33 8.44683 1070.68 5.13483 1075.39 5.13483C1077.91 5.13483 1080.04 6.14283 1081.73 8.08683L1085.47 4.63083C1083.1 1.75083 1079.46 0.166828 1075.1 0.166828C1067.26 0.166828 1061.42 5.60283 1061.42 13.1988C1061.42 20.7948 1067.26 26.2308 1075.07 26.2308ZM1090.13 25.7988H1108.6V21.0468H1095.96V0.598826H1090.13V25.7988ZM1134.9 25.7988L1129.25 17.6988C1132.52 16.2948 1134.43 13.5228 1134.43 9.74283C1134.43 4.09083 1130.22 0.598826 1123.49 0.598826H1112.58V25.7988H1118.41V18.7788H1123.49H1123.77L1128.63 25.7988H1134.9ZM1128.53 9.74283C1128.53 12.4788 1126.73 14.1348 1123.16 14.1348H1118.41V5.35083H1123.16C1126.73 5.35083 1128.53 6.97083 1128.53 9.74283ZM1141.5 26.0868C1143.44 26.0868 1144.99 24.6108 1144.99 22.5588C1144.99 20.4708 1143.44 19.1028 1141.5 19.1028C1139.55 19.1028 1138.01 20.4708 1138.01 22.5588C1138.01 24.6108 1139.55 26.0868 1141.5 26.0868ZM1304.01 25.7988L1298.36 17.6988C1301.64 16.2948 1303.54 13.5228 1303.54 9.74283C1303.54 4.09083 1299.33 0.598826 1292.6 0.598826H1281.69V25.7988H1287.52V18.7788H1292.6H1292.89L1297.75 25.7988H1304.01ZM1297.64 9.74283C1297.64 12.4788 1295.84 14.1348 1292.28 14.1348H1287.52V5.35083H1292.28C1295.84 5.35083 1297.64 6.97083 1297.64 9.74283ZM1308.88 25.7988H1320.33C1328.58 25.7988 1334.23 20.8308 1334.23 13.1988C1334.23 5.56683 1328.58 0.598826 1320.33 0.598826H1308.88V25.7988ZM1314.72 21.0108V5.38683H1320.04C1325.05 5.38683 1328.32 8.37483 1328.32 13.1988C1328.32 18.0228 1325.05 21.0108 1320.04 21.0108H1314.72ZM1351.41 26.2308C1355.8 26.2308 1359.43 24.6468 1361.81 21.7308L1358.07 18.2748C1356.37 20.2548 1354.25 21.2628 1351.73 21.2628C1347.01 21.2628 1343.67 17.9508 1343.67 13.1988C1343.67 8.44683 1347.01 5.13483 1351.73 5.13483C1354.25 5.13483 1356.37 6.14283 1358.07 8.08683L1361.81 4.63083C1359.43 1.75083 1355.8 0.166828 1351.44 0.166828C1343.59 0.166828 1337.76 5.60283 1337.76 13.1988C1337.76 20.7948 1343.59 26.2308 1351.41 26.2308ZM1366.47 25.7988H1384.94V21.0468H1372.3V0.598826H1366.47V25.7988ZM1411.24 25.7988L1405.58 17.6988C1408.86 16.2948 1410.77 13.5228 1410.77 9.74283C1410.77 4.09083 1406.56 0.598826 1399.82 0.598826H1388.92V25.7988H1394.75V18.7788H1399.82H1400.11L1404.97 25.7988H1411.24ZM1404.86 9.74283C1404.86 12.4788 1403.06 14.1348 1399.5 14.1348H1394.75V5.35083H1399.5C1403.06 5.35083 1404.86 6.97083 1404.86 9.74283ZM1417.84 26.0868C1419.78 26.0868 1421.33 24.6108 1421.33 22.5588C1421.33 20.4708 1419.78 19.1028 1417.84 19.1028C1415.89 19.1028 1414.34 20.4708 1414.34 22.5588C1414.34 24.6108 1415.89 26.0868 1417.84 26.0868Z" fill="black"/>
</svg>
