<svg width="1440" height="27" viewBox="0 0 1440 27" fill="none" xmlns="http://www.w3.org/2000/svg">
<path d="M-1026.69 26.3994L-1032.34 18.2994C-1029.07 16.8954 -1027.16 14.1234 -1027.16 10.3434C-1027.16 4.69141 -1031.37 1.19941 -1038.1 1.19941H-1049.01V26.3994H-1043.18V19.3794H-1038.1H-1037.82L-1032.96 26.3994H-1026.69ZM-1033.06 10.3434C-1033.06 13.0794 -1034.86 14.7354 -1038.43 14.7354H-1043.18V5.95141H-1038.43C-1034.86 5.95141 -1033.06 7.57141 -1033.06 10.3434ZM-1021.82 26.3994H-1010.37C-1002.13 26.3994 -996.475 21.4314 -996.475 13.7994C-996.475 6.16741 -1002.13 1.19941 -1010.37 1.19941H-1021.82V26.3994ZM-1015.99 21.6114V5.98741H-1010.66C-1005.66 5.98741 -1002.38 8.97541 -1002.38 13.7994C-1002.38 18.6234 -1005.66 21.6114 -1010.66 21.6114H-1015.99ZM-979.297 26.8314C-974.905 26.8314 -971.269 25.2474 -968.893 22.3314L-972.637 18.8754C-974.329 20.8554 -976.453 21.8634 -978.973 21.8634C-983.689 21.8634 -987.037 18.5514 -987.037 13.7994C-987.037 9.04741 -983.689 5.73541 -978.973 5.73541C-976.453 5.73541 -974.329 6.74341 -972.637 8.68741L-968.893 5.23141C-971.269 2.35141 -974.905 0.767414 -979.261 0.767414C-987.109 0.767414 -992.941 6.20341 -992.941 13.7994C-992.941 21.3954 -987.109 26.8314 -979.297 26.8314ZM-964.235 26.3994H-945.767V21.6474H-958.403V1.19941H-964.235V26.3994ZM-919.468 26.3994L-925.12 18.2994C-921.844 16.8954 -919.936 14.1234 -919.936 10.3434C-919.936 4.69141 -924.148 1.19941 -930.88 1.19941H-941.788V26.3994H-935.956V19.3794H-930.88H-930.592L-925.732 26.3994H-919.468ZM-925.84 10.3434C-925.84 13.0794 -927.64 14.7354 -931.204 14.7354H-935.956V5.95141H-931.204C-927.64 5.95141 -925.84 7.57141 -925.84 10.3434ZM-912.868 26.6874C-910.924 26.6874 -909.376 25.2114 -909.376 23.1594C-909.376 21.0714 -910.924 19.7034 -912.868 19.7034C-914.812 19.7034 -916.36 21.0714 -916.36 23.1594C-916.36 25.2114 -914.812 26.6874 -912.868 26.6874ZM1460.35 26.3994L1454.7 18.2994C1457.97 16.8954 1459.88 14.1234 1459.88 10.3434C1459.88 4.69141 1455.67 1.19941 1448.94 1.19941H1438.03V26.3994H1443.86V19.3794H1448.94H1449.23L1454.09 26.3994H1460.35ZM1453.98 10.3434C1453.98 13.0794 1452.18 14.7354 1448.61 14.7354H1443.86V5.95141H1448.61C1452.18 5.95141 1453.98 7.57141 1453.98 10.3434ZM1465.22 26.3994H1476.67C1484.91 26.3994 1490.57 21.4314 1490.57 13.7994C1490.57 6.16741 1484.91 1.19941 1476.67 1.19941H1465.22V26.3994ZM1471.05 21.6114V5.98741H1476.38C1481.39 5.98741 1484.66 8.97541 1484.66 13.7994C1484.66 18.6234 1481.39 21.6114 1476.38 21.6114H1471.05ZM1507.74 26.8314C1512.14 26.8314 1515.77 25.2474 1518.15 22.3314L1514.4 18.8754C1512.71 20.8554 1510.59 21.8634 1508.07 21.8634C1503.35 21.8634 1500 18.5514 1500 13.7994C1500 9.04741 1503.35 5.73541 1508.07 5.73541C1510.59 5.73541 1512.71 6.74341 1514.4 8.68741L1518.15 5.23141C1515.77 2.35141 1512.14 0.767414 1507.78 0.767414C1499.93 0.767414 1494.1 6.20341 1494.1 13.7994C1494.1 21.3954 1499.93 26.8314 1507.74 26.8314ZM1522.81 26.3994H1541.27V21.6474H1528.64V1.19941H1522.81V26.3994Z" fill="#EC3332"/>
<path d="M-887.174 1.19941V11.1354H-898.622V1.19941H-904.454V26.3994H-898.622V16.0674H-887.174V26.3994H-881.342V1.19941H-887.174ZM-862.456 26.8314C-854.536 26.8314 -848.668 21.3234 -848.668 13.7994C-848.668 6.27541 -854.536 0.767414 -862.456 0.767414C-870.412 0.767414 -876.244 6.31141 -876.244 13.7994C-876.244 21.2874 -870.412 26.8314 -862.456 26.8314ZM-862.456 21.8634C-866.956 21.8634 -870.34 18.5874 -870.34 13.7994C-870.34 9.01141 -866.956 5.73541 -862.456 5.73541C-857.956 5.73541 -854.572 9.01141 -854.572 13.7994C-854.572 18.5874 -857.956 21.8634 -862.456 21.8634ZM-815.161 26.3994L-815.233 1.19941H-820.021L-829.309 16.8594L-838.741 1.19941H-843.565V26.3994H-838.093V11.6034L-830.713 23.7354H-828.085L-820.669 11.2794L-820.633 26.3994H-815.161ZM-802.666 21.7194V15.8874H-790.966V11.3514H-802.666V5.87941H-789.418V1.19941H-808.462V26.3994H-788.95V21.7194H-802.666ZM-610.836 1.19941V11.1354H-622.284V1.19941H-628.116V26.3994H-622.284V16.0674H-610.836V26.3994H-605.004V1.19941H-610.836ZM-586.118 26.8314C-578.198 26.8314 -572.33 21.3234 -572.33 13.7994C-572.33 6.27541 -578.198 0.767414 -586.118 0.767414C-594.074 0.767414 -599.906 6.31141 -599.906 13.7994C-599.906 21.2874 -594.074 26.8314 -586.118 26.8314ZM-586.118 21.8634C-590.618 21.8634 -594.002 18.5874 -594.002 13.7994C-594.002 9.01141 -590.618 5.73541 -586.118 5.73541C-581.618 5.73541 -578.234 9.01141 -578.234 13.7994C-578.234 18.5874 -581.618 21.8634 -586.118 21.8634ZM-538.823 26.3994L-538.895 1.19941H-543.683L-552.971 16.8594L-562.403 1.19941H-567.227V26.3994H-561.755V11.6034L-554.375 23.7354H-551.747L-544.331 11.2794L-544.295 26.3994H-538.823ZM-526.328 21.7194V15.8874H-514.628V11.3514H-526.328V5.87941H-513.08V1.19941H-532.124V26.3994H-512.612V21.7194H-526.328ZM-334.498 1.19941V11.1354H-345.946V1.19941H-351.778V26.3994H-345.946V16.0674H-334.498V26.3994H-328.666V1.19941H-334.498ZM-309.78 26.8314C-301.86 26.8314 -295.992 21.3234 -295.992 13.7994C-295.992 6.27541 -301.86 0.767414 -309.78 0.767414C-317.736 0.767414 -323.568 6.31141 -323.568 13.7994C-323.568 21.2874 -317.736 26.8314 -309.78 26.8314ZM-309.78 21.8634C-314.28 21.8634 -317.664 18.5874 -317.664 13.7994C-317.664 9.01141 -314.28 5.73541 -309.78 5.73541C-305.28 5.73541 -301.896 9.01141 -301.896 13.7994C-301.896 18.5874 -305.28 21.8634 -309.78 21.8634ZM-262.485 26.3994L-262.557 1.19941H-267.345L-276.633 16.8594L-286.065 1.19941H-290.889V26.3994H-285.417V11.6034L-278.037 23.7354H-275.409L-267.993 11.2794L-267.957 26.3994H-262.485ZM-249.99 21.7194V15.8874H-238.29V11.3514H-249.99V5.87941H-236.742V1.19941H-255.786V26.3994H-236.274V21.7194H-249.99ZM-58.1598 1.19941V11.1354H-69.6078V1.19941H-75.4398V26.3994H-69.6078V16.0674H-58.1598V26.3994H-52.3278V1.19941H-58.1598ZM-33.4416 26.8314C-25.5216 26.8314 -19.6536 21.3234 -19.6536 13.7994C-19.6536 6.27541 -25.5216 0.767414 -33.4416 0.767414C-41.3976 0.767414 -47.2296 6.31141 -47.2296 13.7994C-47.2296 21.2874 -41.3976 26.8314 -33.4416 26.8314ZM-33.4416 21.8634C-37.9416 21.8634 -41.3256 18.5874 -41.3256 13.7994C-41.3256 9.01141 -37.9416 5.73541 -33.4416 5.73541C-28.9416 5.73541 -25.5576 9.01141 -25.5576 13.7994C-25.5576 18.5874 -28.9416 21.8634 -33.4416 21.8634ZM13.8534 26.3994L13.7814 1.19941H8.99343L-0.294573 16.8594L-9.72657 1.19941H-14.5506V26.3994H-9.07857V11.6034L-1.69857 23.7354H0.929426L8.34543 11.2794L8.38143 26.3994H13.8534ZM26.3482 21.7194V15.8874H38.0482V11.3514H26.3482V5.87941H39.5962V1.19941H20.5522V26.3994H40.0642V21.7194H26.3482ZM218.178 1.19941V11.1354H206.73V1.19941H200.898V26.3994H206.73V16.0674H218.178V26.3994H224.01V1.19941H218.178ZM242.896 26.8314C250.816 26.8314 256.684 21.3234 256.684 13.7994C256.684 6.27541 250.816 0.767414 242.896 0.767414C234.94 0.767414 229.108 6.31141 229.108 13.7994C229.108 21.2874 234.94 26.8314 242.896 26.8314ZM242.896 21.8634C238.396 21.8634 235.012 18.5874 235.012 13.7994C235.012 9.01141 238.396 5.73541 242.896 5.73541C247.396 5.73541 250.78 9.01141 250.78 13.7994C250.78 18.5874 247.396 21.8634 242.896 21.8634ZM290.191 26.3994L290.119 1.19941H285.331L276.043 16.8594L266.611 1.19941H261.787V26.3994H267.259V11.6034L274.639 23.7354H277.267L284.683 11.2794L284.719 26.3994H290.191ZM302.686 21.7194V15.8874H314.386V11.3514H302.686V5.87941H315.934V1.19941H296.89V26.3994H316.402V21.7194H302.686ZM494.516 1.19941V11.1354H483.068V1.19941H477.236V26.3994H483.068V16.0674H494.516V26.3994H500.348V1.19941H494.516ZM519.234 26.8314C527.154 26.8314 533.022 21.3234 533.022 13.7994C533.022 6.27541 527.154 0.767414 519.234 0.767414C511.278 0.767414 505.446 6.31141 505.446 13.7994C505.446 21.2874 511.278 26.8314 519.234 26.8314ZM519.234 21.8634C514.734 21.8634 511.35 18.5874 511.35 13.7994C511.35 9.01141 514.734 5.73541 519.234 5.73541C523.734 5.73541 527.118 9.01141 527.118 13.7994C527.118 18.5874 523.734 21.8634 519.234 21.8634ZM566.529 26.3994L566.457 1.19941H561.669L552.381 16.8594L542.949 1.19941H538.125V26.3994H543.597V11.6034L550.977 23.7354H553.605L561.021 11.2794L561.057 26.3994H566.529ZM579.024 21.7194V15.8874H590.724V11.3514H579.024V5.87941H592.272V1.19941H573.228V26.3994H592.74V21.7194H579.024ZM770.854 1.19941V11.1354H759.406V1.19941H753.574V26.3994H759.406V16.0674H770.854V26.3994H776.686V1.19941H770.854ZM795.572 26.8314C803.492 26.8314 809.36 21.3234 809.36 13.7994C809.36 6.27541 803.492 0.767414 795.572 0.767414C787.616 0.767414 781.784 6.31141 781.784 13.7994C781.784 21.2874 787.616 26.8314 795.572 26.8314ZM795.572 21.8634C791.072 21.8634 787.688 18.5874 787.688 13.7994C787.688 9.01141 791.072 5.73541 795.572 5.73541C800.072 5.73541 803.456 9.01141 803.456 13.7994C803.456 18.5874 800.072 21.8634 795.572 21.8634ZM842.867 26.3994L842.795 1.19941H838.007L828.719 16.8594L819.287 1.19941H814.463V26.3994H819.935V11.6034L827.315 23.7354H829.943L837.359 11.2794L837.395 26.3994H842.867ZM855.362 21.7194V15.8874H867.062V11.3514H855.362V5.87941H868.61V1.19941H849.566V26.3994H869.078V21.7194H855.362ZM1047.19 1.19941V11.1354H1035.74V1.19941H1029.91V26.3994H1035.74V16.0674H1047.19V26.3994H1053.02V1.19941H1047.19ZM1071.91 26.8314C1079.83 26.8314 1085.7 21.3234 1085.7 13.7994C1085.7 6.27541 1079.83 0.767414 1071.91 0.767414C1063.95 0.767414 1058.12 6.31141 1058.12 13.7994C1058.12 21.2874 1063.95 26.8314 1071.91 26.8314ZM1071.91 21.8634C1067.41 21.8634 1064.03 18.5874 1064.03 13.7994C1064.03 9.01141 1067.41 5.73541 1071.91 5.73541C1076.41 5.73541 1079.79 9.01141 1079.79 13.7994C1079.79 18.5874 1076.41 21.8634 1071.91 21.8634ZM1119.21 26.3994L1119.13 1.19941H1114.35L1105.06 16.8594L1095.63 1.19941H1090.8V26.3994H1096.27V11.6034L1103.65 23.7354H1106.28L1113.7 11.2794L1113.73 26.3994H1119.21ZM1131.7 21.7194V15.8874H1143.4V11.3514H1131.7V5.87941H1144.95V1.19941H1125.9V26.3994H1145.42V21.7194H1131.7ZM1323.53 1.19941V11.1354H1312.08V1.19941H1306.25V26.3994H1312.08V16.0674H1323.53V26.3994H1329.36V1.19941H1323.53ZM1348.25 26.8314C1356.17 26.8314 1362.04 21.3234 1362.04 13.7994C1362.04 6.27541 1356.17 0.767414 1348.25 0.767414C1340.29 0.767414 1334.46 6.31141 1334.46 13.7994C1334.46 21.2874 1340.29 26.8314 1348.25 26.8314ZM1348.25 21.8634C1343.75 21.8634 1340.36 18.5874 1340.36 13.7994C1340.36 9.01141 1343.75 5.73541 1348.25 5.73541C1352.75 5.73541 1356.13 9.01141 1356.13 13.7994C1356.13 18.5874 1352.75 21.8634 1348.25 21.8634ZM1395.54 26.3994L1395.47 1.19941H1390.68L1381.4 16.8594L1371.96 1.19941H1367.14V26.3994H1372.61V11.6034L1379.99 23.7354H1382.62L1390.04 11.2794L1390.07 26.3994H1395.54ZM1408.04 21.7194V15.8874H1419.74V11.3514H1408.04V5.87941H1421.29V1.19941H1402.24V26.3994H1421.75V21.7194H1408.04Z" fill="white"/>
<path d="M-750.354 26.3994L-756.006 18.2994C-752.73 16.8954 -750.822 14.1234 -750.822 10.3434C-750.822 4.69141 -755.034 1.19941 -761.766 1.19941H-772.674V26.3994H-766.842V19.3794H-761.766H-761.478L-756.618 26.3994H-750.354ZM-756.726 10.3434C-756.726 13.0794 -758.526 14.7354 -762.09 14.7354H-766.842V5.95141H-762.09C-758.526 5.95141 -756.726 7.57141 -756.726 10.3434ZM-745.481 26.3994H-734.033C-725.789 26.3994 -720.137 21.4314 -720.137 13.7994C-720.137 6.16741 -725.789 1.19941 -734.033 1.19941H-745.481V26.3994ZM-739.649 21.6114V5.98741H-734.321C-729.317 5.98741 -726.041 8.97541 -726.041 13.7994C-726.041 18.6234 -729.317 21.6114 -734.321 21.6114H-739.649ZM-702.959 26.8314C-698.567 26.8314 -694.931 25.2474 -692.555 22.3314L-696.299 18.8754C-697.991 20.8554 -700.115 21.8634 -702.635 21.8634C-707.351 21.8634 -710.699 18.5514 -710.699 13.7994C-710.699 9.04741 -707.351 5.73541 -702.635 5.73541C-700.115 5.73541 -697.991 6.74341 -696.299 8.68741L-692.555 5.23141C-694.931 2.35141 -698.567 0.767414 -702.923 0.767414C-710.771 0.767414 -716.603 6.20341 -716.603 13.7994C-716.603 21.3954 -710.771 26.8314 -702.959 26.8314ZM-687.897 26.3994H-669.429V21.6474H-682.065V1.19941H-687.897V26.3994ZM-643.13 26.3994L-648.782 18.2994C-645.506 16.8954 -643.598 14.1234 -643.598 10.3434C-643.598 4.69141 -647.81 1.19941 -654.542 1.19941H-665.45V26.3994H-659.618V19.3794H-654.542H-654.254L-649.394 26.3994H-643.13ZM-649.502 10.3434C-649.502 13.0794 -651.302 14.7354 -654.866 14.7354H-659.618V5.95141H-654.866C-651.302 5.95141 -649.502 7.57141 -649.502 10.3434ZM-636.53 26.6874C-634.586 26.6874 -633.038 25.2114 -633.038 23.1594C-633.038 21.0714 -634.586 19.7034 -636.53 19.7034C-638.474 19.7034 -640.022 21.0714 -640.022 23.1594C-640.022 25.2114 -638.474 26.6874 -636.53 26.6874ZM-474.016 26.3994L-479.668 18.2994C-476.392 16.8954 -474.484 14.1234 -474.484 10.3434C-474.484 4.69141 -478.696 1.19941 -485.428 1.19941H-496.336V26.3994H-490.504V19.3794H-485.428H-485.14L-480.28 26.3994H-474.016ZM-480.388 10.3434C-480.388 13.0794 -482.188 14.7354 -485.752 14.7354H-490.504V5.95141H-485.752C-482.188 5.95141 -480.388 7.57141 -480.388 10.3434ZM-469.143 26.3994H-457.695C-449.451 26.3994 -443.799 21.4314 -443.799 13.7994C-443.799 6.16741 -449.451 1.19941 -457.695 1.19941H-469.143V26.3994ZM-463.311 21.6114V5.98741H-457.983C-452.979 5.98741 -449.703 8.97541 -449.703 13.7994C-449.703 18.6234 -452.979 21.6114 -457.983 21.6114H-463.311ZM-426.621 26.8314C-422.229 26.8314 -418.593 25.2474 -416.217 22.3314L-419.961 18.8754C-421.653 20.8554 -423.777 21.8634 -426.297 21.8634C-431.013 21.8634 -434.361 18.5514 -434.361 13.7994C-434.361 9.04741 -431.013 5.73541 -426.297 5.73541C-423.777 5.73541 -421.653 6.74341 -419.961 8.68741L-416.217 5.23141C-418.593 2.35141 -422.229 0.767414 -426.585 0.767414C-434.433 0.767414 -440.265 6.20341 -440.265 13.7994C-440.265 21.3954 -434.433 26.8314 -426.621 26.8314ZM-411.559 26.3994H-393.091V21.6474H-405.727V1.19941H-411.559V26.3994ZM-366.792 26.3994L-372.444 18.2994C-369.168 16.8954 -367.26 14.1234 -367.26 10.3434C-367.26 4.69141 -371.472 1.19941 -378.204 1.19941H-389.112V26.3994H-383.28V19.3794H-378.204H-377.916L-373.056 26.3994H-366.792ZM-373.164 10.3434C-373.164 13.0794 -374.964 14.7354 -378.528 14.7354H-383.28V5.95141H-378.528C-374.964 5.95141 -373.164 7.57141 -373.164 10.3434ZM-360.192 26.6874C-358.248 26.6874 -356.7 25.2114 -356.7 23.1594C-356.7 21.0714 -358.248 19.7034 -360.192 19.7034C-362.136 19.7034 -363.684 21.0714 -363.684 23.1594C-363.684 25.2114 -362.136 26.6874 -360.192 26.6874ZM-197.678 26.3994L-203.33 18.2994C-200.054 16.8954 -198.146 14.1234 -198.146 10.3434C-198.146 4.69141 -202.358 1.19941 -209.09 1.19941H-219.998V26.3994H-214.166V19.3794H-209.09H-208.802L-203.942 26.3994H-197.678ZM-204.05 10.3434C-204.05 13.0794 -205.85 14.7354 -209.414 14.7354H-214.166V5.95141H-209.414C-205.85 5.95141 -204.05 7.57141 -204.05 10.3434ZM-192.805 26.3994H-181.357C-173.113 26.3994 -167.461 21.4314 -167.461 13.7994C-167.461 6.16741 -173.113 1.19941 -181.357 1.19941H-192.805V26.3994ZM-186.973 21.6114V5.98741H-181.645C-176.641 5.98741 -173.365 8.97541 -173.365 13.7994C-173.365 18.6234 -176.641 21.6114 -181.645 21.6114H-186.973ZM-150.283 26.8314C-145.891 26.8314 -142.255 25.2474 -139.879 22.3314L-143.623 18.8754C-145.315 20.8554 -147.439 21.8634 -149.959 21.8634C-154.675 21.8634 -158.023 18.5514 -158.023 13.7994C-158.023 9.04741 -154.675 5.73541 -149.959 5.73541C-147.439 5.73541 -145.315 6.74341 -143.623 8.68741L-139.879 5.23141C-142.255 2.35141 -145.891 0.767414 -150.247 0.767414C-158.095 0.767414 -163.927 6.20341 -163.927 13.7994C-163.927 21.3954 -158.095 26.8314 -150.283 26.8314ZM-135.221 26.3994H-116.753V21.6474H-129.389V1.19941H-135.221V26.3994ZM-90.4543 26.3994L-96.1063 18.2994C-92.8303 16.8954 -90.9223 14.1234 -90.9223 10.3434C-90.9223 4.69141 -95.1343 1.19941 -101.866 1.19941H-112.774V26.3994H-106.942V19.3794H-101.866H-101.578L-96.7183 26.3994H-90.4543ZM-96.8263 10.3434C-96.8263 13.0794 -98.6263 14.7354 -102.19 14.7354H-106.942V5.95141H-102.19C-98.6263 5.95141 -96.8263 7.57141 -96.8263 10.3434ZM-83.8537 26.6874C-81.9097 26.6874 -80.3617 25.2114 -80.3617 23.1594C-80.3617 21.0714 -81.9097 19.7034 -83.8537 19.7034C-85.7977 19.7034 -87.3457 21.0714 -87.3457 23.1594C-87.3457 25.2114 -85.7977 26.6874 -83.8537 26.6874ZM78.6599 26.3994L73.0079 18.2994C76.2839 16.8954 78.1919 14.1234 78.1919 10.3434C78.1919 4.69141 73.9799 1.19941 67.2479 1.19941H56.3399V26.3994H62.1719V19.3794H67.2479H67.5359L72.3959 26.3994H78.6599ZM72.2879 10.3434C72.2879 13.0794 70.4879 14.7354 66.9239 14.7354H62.1719V5.95141H66.9239C70.4879 5.95141 72.2879 7.57141 72.2879 10.3434ZM83.5326 26.3994H94.9806C103.225 26.3994 108.877 21.4314 108.877 13.7994C108.877 6.16741 103.225 1.19941 94.9806 1.19941H83.5326V26.3994ZM89.3646 21.6114V5.98741H94.6926C99.6966 5.98741 102.973 8.97541 102.973 13.7994C102.973 18.6234 99.6966 21.6114 94.6926 21.6114H89.3646ZM126.055 26.8314C130.447 26.8314 134.083 25.2474 136.459 22.3314L132.715 18.8754C131.023 20.8554 128.899 21.8634 126.379 21.8634C121.663 21.8634 118.315 18.5514 118.315 13.7994C118.315 9.04741 121.663 5.73541 126.379 5.73541C128.899 5.73541 131.023 6.74341 132.715 8.68741L136.459 5.23141C134.083 2.35141 130.447 0.767414 126.091 0.767414C118.243 0.767414 112.411 6.20341 112.411 13.7994C112.411 21.3954 118.243 26.8314 126.055 26.8314ZM141.117 26.3994H159.585V21.6474H146.949V1.19941H141.117V26.3994ZM185.884 26.3994L180.232 18.2994C183.508 16.8954 185.416 14.1234 185.416 10.3434C185.416 4.69141 181.204 1.19941 174.472 1.19941H163.564V26.3994H169.396V19.3794H174.472H174.76L179.62 26.3994H185.884ZM179.512 10.3434C179.512 13.0794 177.712 14.7354 174.148 14.7354H169.396V5.95141H174.148C177.712 5.95141 179.512 7.57141 179.512 10.3434ZM192.484 26.6874C194.428 26.6874 195.976 25.2114 195.976 23.1594C195.976 21.0714 194.428 19.7034 192.484 19.7034C190.54 19.7034 188.992 21.0714 188.992 23.1594C188.992 25.2114 190.54 26.6874 192.484 26.6874ZM354.998 26.3994L349.346 18.2994C352.622 16.8954 354.53 14.1234 354.53 10.3434C354.53 4.69141 350.318 1.19941 343.586 1.19941H332.678V26.3994H338.51V19.3794H343.586H343.874L348.734 26.3994H354.998ZM348.626 10.3434C348.626 13.0794 346.826 14.7354 343.262 14.7354H338.51V5.95141H343.262C346.826 5.95141 348.626 7.57141 348.626 10.3434ZM359.87 26.3994H371.318C379.562 26.3994 385.214 21.4314 385.214 13.7994C385.214 6.16741 379.562 1.19941 371.318 1.19941H359.87V26.3994ZM365.702 21.6114V5.98741H371.03C376.034 5.98741 379.31 8.97541 379.31 13.7994C379.31 18.6234 376.034 21.6114 371.03 21.6114H365.702ZM402.393 26.8314C406.785 26.8314 410.421 25.2474 412.797 22.3314L409.053 18.8754C407.361 20.8554 405.237 21.8634 402.717 21.8634C398.001 21.8634 394.653 18.5514 394.653 13.7994C394.653 9.04741 398.001 5.73541 402.717 5.73541C405.237 5.73541 407.361 6.74341 409.053 8.68741L412.797 5.23141C410.421 2.35141 406.785 0.767414 402.429 0.767414C394.581 0.767414 388.749 6.20341 388.749 13.7994C388.749 21.3954 394.581 26.8314 402.393 26.8314ZM417.455 26.3994H435.923V21.6474H423.287V1.19941H417.455V26.3994ZM462.222 26.3994L456.57 18.2994C459.846 16.8954 461.754 14.1234 461.754 10.3434C461.754 4.69141 457.542 1.19941 450.81 1.19941H439.902V26.3994H445.734V19.3794H450.81H451.098L455.958 26.3994H462.222ZM455.85 10.3434C455.85 13.0794 454.05 14.7354 450.486 14.7354H445.734V5.95141H450.486C454.05 5.95141 455.85 7.57141 455.85 10.3434ZM468.822 26.6874C470.766 26.6874 472.314 25.2114 472.314 23.1594C472.314 21.0714 470.766 19.7034 468.822 19.7034C466.878 19.7034 465.33 21.0714 465.33 23.1594C465.33 25.2114 466.878 26.6874 468.822 26.6874ZM631.336 26.3994L625.684 18.2994C628.96 16.8954 630.868 14.1234 630.868 10.3434C630.868 4.69141 626.656 1.19941 619.924 1.19941H609.016V26.3994H614.848V19.3794H619.924H620.212L625.072 26.3994H631.336ZM624.964 10.3434C624.964 13.0794 623.164 14.7354 619.6 14.7354H614.848V5.95141H619.6C623.164 5.95141 624.964 7.57141 624.964 10.3434ZM636.208 26.3994H647.656C655.9 26.3994 661.552 21.4314 661.552 13.7994C661.552 6.16741 655.9 1.19941 647.656 1.19941H636.208V26.3994ZM642.04 21.6114V5.98741H647.368C652.372 5.98741 655.648 8.97541 655.648 13.7994C655.648 18.6234 652.372 21.6114 647.368 21.6114H642.04ZM678.731 26.8314C683.123 26.8314 686.759 25.2474 689.135 22.3314L685.391 18.8754C683.699 20.8554 681.575 21.8634 679.055 21.8634C674.339 21.8634 670.991 18.5514 670.991 13.7994C670.991 9.04741 674.339 5.73541 679.055 5.73541C681.575 5.73541 683.699 6.74341 685.391 8.68741L689.135 5.23141C686.759 2.35141 683.123 0.767414 678.767 0.767414C670.919 0.767414 665.087 6.20341 665.087 13.7994C665.087 21.3954 670.919 26.8314 678.731 26.8314ZM693.793 26.3994H712.261V21.6474H699.625V1.19941H693.793V26.3994ZM738.56 26.3994L732.908 18.2994C736.184 16.8954 738.092 14.1234 738.092 10.3434C738.092 4.69141 733.88 1.19941 727.148 1.19941H716.24V26.3994H722.072V19.3794H727.148H727.436L732.296 26.3994H738.56ZM732.188 10.3434C732.188 13.0794 730.388 14.7354 726.824 14.7354H722.072V5.95141H726.824C730.388 5.95141 732.188 7.57141 732.188 10.3434ZM745.16 26.6874C747.104 26.6874 748.652 25.2114 748.652 23.1594C748.652 21.0714 747.104 19.7034 745.16 19.7034C743.216 19.7034 741.668 21.0714 741.668 23.1594C741.668 25.2114 743.216 26.6874 745.16 26.6874ZM907.674 26.3994L902.022 18.2994C905.298 16.8954 907.206 14.1234 907.206 10.3434C907.206 4.69141 902.994 1.19941 896.262 1.19941H885.354V26.3994H891.186V19.3794H896.262H896.55L901.41 26.3994H907.674ZM901.302 10.3434C901.302 13.0794 899.502 14.7354 895.938 14.7354H891.186V5.95141H895.938C899.502 5.95141 901.302 7.57141 901.302 10.3434ZM912.546 26.3994H923.994C932.238 26.3994 937.89 21.4314 937.89 13.7994C937.89 6.16741 932.238 1.19941 923.994 1.19941H912.546V26.3994ZM918.378 21.6114V5.98741H923.706C928.71 5.98741 931.986 8.97541 931.986 13.7994C931.986 18.6234 928.71 21.6114 923.706 21.6114H918.378ZM955.069 26.8314C959.461 26.8314 963.097 25.2474 965.473 22.3314L961.729 18.8754C960.037 20.8554 957.913 21.8634 955.393 21.8634C950.677 21.8634 947.329 18.5514 947.329 13.7994C947.329 9.04741 950.677 5.73541 955.393 5.73541C957.913 5.73541 960.037 6.74341 961.729 8.68741L965.473 5.23141C963.097 2.35141 959.461 0.767414 955.105 0.767414C947.257 0.767414 941.425 6.20341 941.425 13.7994C941.425 21.3954 947.257 26.8314 955.069 26.8314ZM970.131 26.3994H988.599V21.6474H975.963V1.19941H970.131V26.3994ZM1014.9 26.3994L1009.25 18.2994C1012.52 16.8954 1014.43 14.1234 1014.43 10.3434C1014.43 4.69141 1010.22 1.19941 1003.49 1.19941H992.577V26.3994H998.409V19.3794H1003.49H1003.77L1008.63 26.3994H1014.9ZM1008.53 10.3434C1008.53 13.0794 1006.73 14.7354 1003.16 14.7354H998.409V5.95141H1003.16C1006.73 5.95141 1008.53 7.57141 1008.53 10.3434ZM1021.5 26.6874C1023.44 26.6874 1024.99 25.2114 1024.99 23.1594C1024.99 21.0714 1023.44 19.7034 1021.5 19.7034C1019.55 19.7034 1018.01 21.0714 1018.01 23.1594C1018.01 25.2114 1019.55 26.6874 1021.5 26.6874ZM1184.01 26.3994L1178.36 18.2994C1181.64 16.8954 1183.54 14.1234 1183.54 10.3434C1183.54 4.69141 1179.33 1.19941 1172.6 1.19941H1161.69V26.3994H1167.52V19.3794H1172.6H1172.89L1177.75 26.3994H1184.01ZM1177.64 10.3434C1177.64 13.0794 1175.84 14.7354 1172.28 14.7354H1167.52V5.95141H1172.28C1175.84 5.95141 1177.64 7.57141 1177.64 10.3434ZM1188.88 26.3994H1200.33C1208.58 26.3994 1214.23 21.4314 1214.23 13.7994C1214.23 6.16741 1208.58 1.19941 1200.33 1.19941H1188.88V26.3994ZM1194.72 21.6114V5.98741H1200.04C1205.05 5.98741 1208.32 8.97541 1208.32 13.7994C1208.32 18.6234 1205.05 21.6114 1200.04 21.6114H1194.72ZM1231.41 26.8314C1235.8 26.8314 1239.43 25.2474 1241.81 22.3314L1238.07 18.8754C1236.37 20.8554 1234.25 21.8634 1231.73 21.8634C1227.01 21.8634 1223.67 18.5514 1223.67 13.7994C1223.67 9.04741 1227.01 5.73541 1231.73 5.73541C1234.25 5.73541 1236.37 6.74341 1238.07 8.68741L1241.81 5.23141C1239.43 2.35141 1235.8 0.767414 1231.44 0.767414C1223.59 0.767414 1217.76 6.20341 1217.76 13.7994C1217.76 21.3954 1223.59 26.8314 1231.41 26.8314ZM1246.47 26.3994H1264.94V21.6474H1252.3V1.19941H1246.47V26.3994ZM1291.24 26.3994L1285.58 18.2994C1288.86 16.8954 1290.77 14.1234 1290.77 10.3434C1290.77 4.69141 1286.56 1.19941 1279.82 1.19941H1268.92V26.3994H1274.75V19.3794H1279.82H1280.11L1284.97 26.3994H1291.24ZM1284.86 10.3434C1284.86 13.0794 1283.06 14.7354 1279.5 14.7354H1274.75V5.95141H1279.5C1283.06 5.95141 1284.86 7.57141 1284.86 10.3434ZM1297.84 26.6874C1299.78 26.6874 1301.33 25.2114 1301.33 23.1594C1301.33 21.0714 1299.78 19.7034 1297.84 19.7034C1295.89 19.7034 1294.34 21.0714 1294.34 23.1594C1294.34 25.2114 1295.89 26.6874 1297.84 26.6874Z" fill="black"/>
</svg>
